<svg xmlns="http://www.w3.org/2000/svg" viewBox="0 0 64 64">
  <rect width="64" height="64" rx="14" fill="#090D14"/>
  <circle cx="32" cy="32" r="24" fill="none" stroke="#DFC08E" stroke-width="2.5"/>
  <path
    d="M32 14c4 5 6 9 6 13 0 3-2 5-6 7-4-2-6-4-6-7 0-4 2-8 6-13Z"
    fill="none"
    stroke="#DFC08E"
    stroke-width="2.5"
    stroke-linecap="round"
    stroke-linejoin="round"
  />
  <path
    d="M20 31c3-6 8-10 12-13-2 5-2 9-1 13-4 0-7 0-11 0Zm24 0c-4 0-7 0-11 0 1-4 1-8-1-13 4 3 9 7 12 13Z"
    fill="none"
    stroke="#DFC08E"
    stroke-width="2.5"
    stroke-linecap="round"
    stroke-linejoin="round"
  />
  <path
    d="M24 38c3 2 5 4 8 8 3-4 5-6 8-8"
    fill="none"
    stroke="#DFC08E"
    stroke-width="2.5"
    stroke-linecap="round"
    stroke-linejoin="round"
  />
  <circle cx="32" cy="33" r="2.5" fill="#DFC08E"/>
</svg>
