<svg xmlns="http://www.w3.org/2000/svg" viewBox="0 0 256 256" fill="none">
  <defs>
    <linearGradient id="frame" x1="36" y1="28" x2="220" y2="228" gradientUnits="userSpaceOnUse">
      <stop stop-color="#1E3A8A"/>
      <stop offset=".32" stop-color="#0F766E"/>
      <stop offset=".66" stop-color="#D946EF"/>
      <stop offset="1" stop-color="#F97316"/>
    </linearGradient>
    <radialGradient id="panel" cx="0" cy="0" r="1" gradientUnits="userSpaceOnUse" gradientTransform="translate(128 128) rotate(90) scale(108)">
      <stop stop-color="#FFF8EB"/>
      <stop offset=".58" stop-color="#FFE8C7"/>
      <stop offset="1" stop-color="#F7D7A8"/>
    </radialGradient>
    <linearGradient id="lotusOuter" x1="128" y1="42" x2="128" y2="120" gradientUnits="userSpaceOnUse">
      <stop stop-color="#7C3AED"/>
      <stop offset=".45" stop-color="#EC4899"/>
      <stop offset="1" stop-color="#F97316"/>
    </linearGradient>
    <linearGradient id="lotusInner" x1="128" y1="62" x2="128" y2="128" gradientUnits="userSpaceOnUse">
      <stop stop-color="#FDE68A"/>
      <stop offset=".5" stop-color="#F59E0B"/>
      <stop offset="1" stop-color="#EA580C"/>
    </linearGradient>
    <linearGradient id="wingLeft" x1="54" y1="108" x2="110" y2="164" gradientUnits="userSpaceOnUse">
      <stop stop-color="#2563EB"/>
      <stop offset="1" stop-color="#14B8A6"/>
    </linearGradient>
    <linearGradient id="wingRight" x1="202" y1="108" x2="146" y2="164" gradientUnits="userSpaceOnUse">
      <stop stop-color="#F43F5E"/>
      <stop offset="1" stop-color="#FB7185"/>
    </linearGradient>
    <linearGradient id="face" x1="128" y1="108" x2="128" y2="212" gradientUnits="userSpaceOnUse">
      <stop stop-color="#F8CFA4"/>
      <stop offset=".58" stop-color="#EFAE7D"/>
      <stop offset="1" stop-color="#DB8A63"/>
    </linearGradient>
    <linearGradient id="bindi" x1="128" y1="118" x2="128" y2="148" gradientUnits="userSpaceOnUse">
      <stop stop-color="#EF4444"/>
      <stop offset="1" stop-color="#B91C1C"/>
    </linearGradient>
  </defs>

  <rect x="12" y="12" width="232" height="232" rx="68" fill="url(#frame)"/>
  <rect x="24" y="24" width="208" height="208" rx="56" fill="url(#panel)"/>

  <path d="M128 42c19 18 29 34 29 49 0 14-10 24-29 31-19-7-29-17-29-31 0-15 10-31 29-49Z" fill="url(#lotusOuter)"/>
  <path d="M128 62c11 11 17 21 17 31 0 8-6 15-17 20-11-5-17-12-17-20 0-10 6-20 17-31Z" fill="url(#lotusInner)"/>
  <path d="M88 91c14 8 25 19 32 35-19-2-34-7-47-18 3-8 8-14 15-17Z" fill="url(#wingLeft)"/>
  <path d="M168 91c-14 8-25 19-32 35 19-2 34-7 47-18-3-8-8-14-15-17Z" fill="url(#wingRight)"/>

  <path d="M72 130c17-17 37-27 56-29-7 12-10 24-10 37-19 0-34-2-46-8Zm112 0c-12 6-27 8-46 8 0-13-3-25-10-37 19 2 39 12 56 29Z" fill="#C084FC" fill-opacity=".55"/>
  <path d="M72 144c14 13 23 28 28 45-16-7-31-21-43-40 5-2 10-4 15-5Zm112 0c-5 1-10 3-15 5-12 19-27 33-43 40 5-17 14-32 28-45 10-2 20-2 30 0Z" fill="#38BDF8" fill-opacity=".42"/>

  <path d="M128 110c31 0 54 28 54 56 0 31-24 55-54 55s-54-24-54-55c0-28 23-56 54-56Z" fill="url(#face)"/>
  <path d="M93 165c8-7 17-10 28-10 2 0 5 1 7 1 2 0 5-1 7-1 11 0 20 3 28 10" stroke="#5B2D16" stroke-width="5" stroke-linecap="round"/>
  <path d="M100 177c8 5 17 7 28 7s20-2 28-7" stroke="#5B2D16" stroke-width="4.5" stroke-linecap="round"/>
  <path d="M109 195c6 6 12 8 19 8s13-2 19-8" stroke="#A61E4D" stroke-width="5" stroke-linecap="round"/>
  <path d="M109 146c5-6 11-9 19-9 8 0 14 3 19 9" stroke="#5B2D16" stroke-width="4" stroke-linecap="round"/>
  <circle cx="113" cy="155" r="4.5" fill="#3B1D0F"/>
  <circle cx="143" cy="155" r="4.5" fill="#3B1D0F"/>
  <path d="M128 119c6 7 9 12 9 17 0 4-3 8-9 11-6-3-9-7-9-11 0-5 3-10 9-17Z" fill="url(#bindi)"/>
</svg>
